<svg width="24" height="23" viewBox="0 0 24 23" fill="none" xmlns="http://www.w3.org/2000/svg">
<path fill-rule="evenodd" clip-rule="evenodd" d="M0.952148 6.53244C0.952148 3.3568 3.52651 0.78244 6.70215 0.78244H17.2979C20.4735 0.78244 23.0479 3.3568 23.0479 6.53244V17.1282C23.0479 20.3038 20.4735 22.8782 17.2979 22.8782H6.70214C3.52651 22.8782 0.952148 20.3038 0.952148 17.1282V6.53244ZM6.70215 2.28244C4.35494 2.28244 2.45215 4.18523 2.45215 6.53244V17.1282C2.45215 19.4754 4.35493 21.3782 6.70214 21.3782H17.2979C19.6451 21.3782 21.5479 19.4754 21.5479 17.1282V6.53244C21.5479 4.18523 19.6451 2.28244 17.2979 2.28244H6.70215Z" fill="black"/>
</svg>
