<svg width="23" height="23" viewBox="0 0 23 23" fill="none" xmlns="http://www.w3.org/2000/svg">
<path fill-rule="evenodd" clip-rule="evenodd" d="M22.6491 4.96946C22.7891 5.46643 22.8641 5.99068 22.8641 6.53244V17.1282C22.8641 20.3038 20.2897 22.8782 17.1141 22.8782H6.51831C3.34267 22.8782 0.768311 20.3038 0.768311 17.1282V6.53244C0.768311 3.3568 3.34267 0.78244 6.51831 0.78244H17.1141C17.8661 0.78244 18.5845 0.92683 19.2429 1.1894L18.286 2.44607C17.9137 2.33951 17.5206 2.28244 17.1141 2.28244H6.51831C4.1711 2.28244 2.26831 4.18523 2.26831 6.53244V17.1282C2.26831 19.4754 4.1711 21.3782 6.51831 21.3782H17.1141C19.4613 21.3782 21.3641 19.4754 21.3641 17.1282V6.65698L22.6491 4.96946Z" fill="black"/>
<path d="M7.09271 10.1237L11.4595 15.5372L22.1357 1.51707" stroke="black" stroke-width="1.5"/>
</svg>
