<svg width="17" height="17" viewBox="0 0 17 17" fill="none" xmlns="http://www.w3.org/2000/svg">
<g clip-path="url(#clip0_10248_5693)">
<path d="M15.776 1.33398H5.34118C5.2547 1.33398 5.17176 1.36834 5.1106 1.42949C5.04945 1.49065 5.01509 1.57359 5.01509 1.66007V5.24703H1.42814C1.34165 5.24703 1.25871 5.28138 1.19756 5.34254C1.13641 5.40369 1.10205 5.48663 1.10205 5.57311V16.0079C1.10205 16.0944 1.13641 16.1773 1.19756 16.2385C1.25871 16.2996 1.34165 16.334 1.42814 16.334H11.8629C11.9494 16.334 12.0323 16.2996 12.0935 16.2385C12.1547 16.1773 12.189 16.0944 12.189 16.0079V12.4209H15.776C15.8624 12.4209 15.9454 12.3866 16.0065 12.3254C16.0677 12.2643 16.1021 12.1813 16.1021 12.0949V1.66007C16.1021 1.57359 16.0677 1.49065 16.0065 1.42949C15.9454 1.36834 15.8624 1.33398 15.776 1.33398ZM11.5368 15.6818H1.75422V5.8992H11.5368V15.6818ZM15.4499 11.7688H12.189V5.57311C12.189 5.48663 12.1547 5.40369 12.0935 5.34254C12.0323 5.28138 11.9494 5.24703 11.8629 5.24703H5.66727V1.98616H15.4499V11.7688Z" fill="#A0A0A0" stroke="#A0A0A0" stroke-width="0.25"/>
</g>
<defs>
<clipPath id="clip0_10248_5693">
<rect width="16" height="16" fill="white" transform="translate(0.602051 0.833984)"/>
</clipPath>
</defs>
</svg>
