<svg width="13" height="13" viewBox="0 0 13 13" fill="none" xmlns="http://www.w3.org/2000/svg">
<path d="M9.13992 6.48482C7.28232 6.48482 5.77992 4.98242 5.77992 3.12482C5.77992 4.98242 4.27752 6.48482 2.41992 6.48482C4.27752 6.48482 5.77992 7.98722 5.77992 9.84482C5.77992 7.98722 7.28232 6.48482 9.13992 6.48482V6.48482Z" stroke="white" stroke-miterlimit="10"/>
<path d="M12.2642 2.1648C11.069 2.1648 10.0994 1.1952 10.0994 0C10.0994 1.1952 9.12977 2.1648 7.93457 2.1648C9.12977 2.1648 10.0994 3.1344 10.0994 4.3296C10.0994 3.1344 11.069 2.1648 12.2642 2.1648V2.1648Z" stroke="white" stroke-miterlimit="10"/>
<path d="M11.06 6.42239C11.06 9.34079 8.6984 11.7024 5.78 11.7024C2.8616 11.7024 0.5 9.34079 0.5 6.42239C0.5 3.50879 2.8616 1.1424 5.78 1.1424" stroke="white" stroke-miterlimit="10"/>
</svg>
