<svg width="22" height="23" viewBox="0 0 22 23" fill="none" xmlns="http://www.w3.org/2000/svg">
<g clip-path="url(#clip0_2_298)">
<path d="M11.0479 1.24986H21.3458V11.5477" stroke="white" stroke-width="1.5" stroke-miterlimit="10"/>
<path d="M21.3458 1.24986L11.0479 11.5477" stroke="white" stroke-width="1.5" stroke-miterlimit="10"/>
<path fill-rule="evenodd" clip-rule="evenodd" d="M11.0479 21.0956C5.77473 21.0956 1.5 16.8209 1.5 11.5478C1.50001 7.61475 3.87804 4.23716 7.2747 2.7744L7.2747 1.16098C3.0311 2.70288 5.1981e-06 6.77134 4.78053e-06 11.5478C4.24712e-06 17.6493 4.9463 22.5956 11.0479 22.5956C15.8243 22.5956 19.8927 19.5645 21.4346 15.321L19.8212 15.321C18.3585 18.7176 14.9809 21.0956 11.0479 21.0956ZM22.0479 12.5829C22.0796 12.2421 22.0957 11.8968 22.0957 11.5478C22.0957 11.1987 22.0796 10.8534 22.0479 10.5126L22.0479 12.5829ZM12.0833 0.547761C11.7424 0.516078 11.397 0.499881 11.0479 0.499881C10.6987 0.499881 10.3534 0.516078 10.0125 0.547761L12.0833 0.547761Z" fill="white"/>
</g>
<defs>
<clipPath id="clip0_2_298">
<rect width="22" height="22" fill="white" transform="translate(0 0.499878)"/>
</clipPath>
</defs>
</svg>
