<svg width="305" height="247" viewBox="0 0 305 247" fill="none" xmlns="http://www.w3.org/2000/svg">
<g clip-path="url(#clip0_2289_9985)">
<path d="M7.36133 110.83L194.054 191.157V196.946" stroke="white" stroke-width="0.75" stroke-linecap="round" stroke-linejoin="round"/>
<path d="M4.71875 115.896L191.411 196.235L197.638 197.851" stroke="white" stroke-width="0.75" stroke-linecap="round" stroke-linejoin="round"/>
<path d="M2.83594 121.021L189.528 201.349L193.993 196.886" stroke="white" stroke-width="0.75" stroke-linecap="round" stroke-linejoin="round"/>
<path d="M0.458984 128.005L187.14 208.344L197.638 197.851" stroke="white" stroke-width="0.75" stroke-linecap="round" stroke-linejoin="round"/>
<path d="M0.458984 133.469L187.14 213.808L197.674 203.29" stroke="white" stroke-width="0.75" stroke-linecap="round" stroke-linejoin="round"/>
<path d="M0.458984 138.92L187.14 219.259L197.674 208.754" stroke="white" stroke-width="0.75" stroke-linecap="round" stroke-linejoin="round"/>
<path d="M0.458984 144.384L187.14 224.723L197.674 214.194" stroke="white" stroke-width="0.75" stroke-linecap="round" stroke-linejoin="round"/>
<path d="M0.458984 149.848L187.14 230.175L197.674 219.645" stroke="white" stroke-width="0.75" stroke-linecap="round" stroke-linejoin="round"/>
<path d="M0.458984 155.299L187.14 235.638L197.674 225.109" stroke="white" stroke-width="0.75" stroke-linecap="round" stroke-linejoin="round"/>
<path d="M0.458984 160.763L187.14 241.09L197.674 230.561" stroke="white" stroke-width="0.75" stroke-linecap="round" stroke-linejoin="round"/>
<path d="M0.458984 166.215L187.14 246.554L197.674 236.024" stroke="white" stroke-width="0.75" stroke-linecap="round" stroke-linejoin="round"/>
<path d="M197.638 197.851V185.187L10.9453 104.86" stroke="white" stroke-width="0.75" stroke-linecap="round" stroke-linejoin="round"/>
<path d="M14.8184 100.168L201.511 180.495V193.955" stroke="white" stroke-width="0.75" stroke-linecap="round" stroke-linejoin="round"/>
<path d="M18.6924 96.1997L205.385 176.539V190.035" stroke="white" stroke-width="0.75" stroke-linecap="round" stroke-linejoin="round"/>
<path d="M22.5781 92.1108L209.259 172.438V186.115" stroke="white" stroke-width="0.75" stroke-linecap="round" stroke-linejoin="round"/>
<path d="M26.4512 87.9136L213.132 168.253V182.183" stroke="white" stroke-width="0.75" stroke-linecap="round" stroke-linejoin="round"/>
<path d="M30.3252 83.6682L217.018 163.995V178.264" stroke="white" stroke-width="0.75" stroke-linecap="round" stroke-linejoin="round"/>
<path d="M34.1982 79.8206L220.891 160.16V174.344" stroke="white" stroke-width="0.75" stroke-linecap="round" stroke-linejoin="round"/>
<path d="M38.0723 75.5991L224.765 155.938V170.412" stroke="white" stroke-width="0.75" stroke-linecap="round" stroke-linejoin="round"/>
<path d="M41.9453 71.5105L228.638 151.85V166.492" stroke="white" stroke-width="0.75" stroke-linecap="round" stroke-linejoin="round"/>
<path d="M45.8193 67.4219L232.512 147.749V162.572" stroke="white" stroke-width="0.75" stroke-linecap="round" stroke-linejoin="round"/>
<path d="M49.6934 63.321L236.386 143.66V158.64" stroke="white" stroke-width="0.75" stroke-linecap="round" stroke-linejoin="round"/>
<path d="M53.5791 59.0996L240.26 139.439V154.72" stroke="white" stroke-width="0.75" stroke-linecap="round" stroke-linejoin="round"/>
<path d="M57.4521 55.2642L244.133 135.603V150.8" stroke="white" stroke-width="0.75" stroke-linecap="round" stroke-linejoin="round"/>
<path d="M61.3262 51.0427L248.019 131.382V146.868" stroke="white" stroke-width="0.75" stroke-linecap="round" stroke-linejoin="round"/>
<path d="M65.1992 46.6887L251.892 127.028V142.949" stroke="white" stroke-width="0.75" stroke-linecap="round" stroke-linejoin="round"/>
<path d="M69.0732 42.9255L255.766 123.265V139.029" stroke="white" stroke-width="0.75" stroke-linecap="round" stroke-linejoin="round"/>
<path d="M72.9463 38.7644L259.639 119.104V135.097" stroke="white" stroke-width="0.75" stroke-linecap="round" stroke-linejoin="round"/>
<path d="M76.8203 34.6758L263.513 115.003V131.177" stroke="white" stroke-width="0.75" stroke-linecap="round" stroke-linejoin="round"/>
<path d="M80.6934 30.3218L267.386 110.661V127.257" stroke="white" stroke-width="0.75" stroke-linecap="round" stroke-linejoin="round"/>
<path d="M84.5791 26.3535L271.26 106.693V123.325" stroke="white" stroke-width="0.75" stroke-linecap="round" stroke-linejoin="round"/>
<path d="M88.4531 22.5181L275.134 102.857V119.405" stroke="white" stroke-width="0.75" stroke-linecap="round" stroke-linejoin="round"/>
<path d="M92.3262 18.0435L279.019 98.3706V115.473" stroke="white" stroke-width="0.75" stroke-linecap="round" stroke-linejoin="round"/>
<path d="M96.2002 14.0754L282.893 94.4147V111.554" stroke="white" stroke-width="0.75" stroke-linecap="round" stroke-linejoin="round"/>
<path d="M100.074 9.854L286.767 90.1932V107.634" stroke="white" stroke-width="0.75" stroke-linecap="round" stroke-linejoin="round"/>
<path d="M103.947 5.88574L290.64 86.225V103.702" stroke="white" stroke-width="0.75" stroke-linecap="round" stroke-linejoin="round"/>
<path d="M107.278 2.30371L293.971 82.6429V100.337" stroke="white" stroke-width="0.75" stroke-linecap="round" stroke-linejoin="round"/>
<path d="M111.888 0.518555L298.58 80.8457V88.2874" stroke="white" stroke-width="0.75" stroke-linecap="round" stroke-linejoin="round"/>
<path d="M293.971 133.408L304.542 122.3L300.861 120.684" stroke="white" stroke-width="0.75" stroke-linecap="round" stroke-linejoin="round"/>
<path d="M293.971 127.981L304.542 116.872L300.849 115.268" stroke="white" stroke-width="0.75" stroke-linecap="round" stroke-linejoin="round"/>
<path d="M293.971 122.565L304.542 111.445L300.849 109.841" stroke="white" stroke-width="0.75" stroke-linecap="round" stroke-linejoin="round"/>
<path d="M293.971 117.138L304.542 106.017L300.849 104.425" stroke="white" stroke-width="0.75" stroke-linecap="round" stroke-linejoin="round"/>
<path d="M293.971 111.722L304.542 100.614L300.849 99.022" stroke="white" stroke-width="0.75" stroke-linecap="round" stroke-linejoin="round"/>
<path d="M293.971 106.319L304.542 95.1985L300.789 93.5823" stroke="white" stroke-width="0.75" stroke-linecap="round" stroke-linejoin="round"/>
<path d="M293.971 100.337L304.542 89.3972L299.594 87.2744" stroke="white" stroke-width="0.75" stroke-linecap="round" stroke-linejoin="round"/>
<path d="M114.76 0.458252L301.452 80.7854L293.971 100.337" stroke="white" stroke-width="0.75" stroke-linecap="round" stroke-linejoin="round"/>
<path d="M298.58 88.2875L303.383 83.4872L300.837 82.3896" stroke="white" stroke-width="0.75" stroke-linecap="round" stroke-linejoin="round"/>
</g>
<defs>
<clipPath id="clip0_2289_9985">
<rect width="305" height="247" fill="white"/>
</clipPath>
</defs>
</svg>
