<svg width="12" height="12" viewBox="0 0 12 12" fill="none" xmlns="http://www.w3.org/2000/svg">
    <g clip-path="url(#clip0_1734_5660)">
        <path
            d="M11.6169 6.00002C11.6169 2.89782 9.10203 0.382996 5.99983 0.382996C2.89764 0.382996 0.382812 2.89782 0.382812 6.00002C0.382812 9.10221 2.89764 11.617 5.99983 11.617C9.10203 11.617 11.6169 9.10221 11.6169 6.00002Z"
            stroke="#A0A0A0" stroke-miterlimit="10" />
        <path
            d="M7.86896 4.55746C7.86896 3.52387 7.03106 2.68597 5.99747 2.68597C4.96387 2.68597 4.12598 3.52387 4.12598 4.55746C4.12598 5.59106 4.96387 6.42895 5.99747 6.42895C7.03106 6.42895 7.86896 5.59106 7.86896 4.55746Z"
            stroke="#A0A0A0" stroke-miterlimit="10" />
        <path
            d="M2.20605 10.1718V10.0186C2.20605 8.90035 3.10988 7.99652 4.22818 7.99652H7.77712C8.89542 7.99652 9.79925 8.90035 9.79925 10.0186V10.1718"
            stroke="#A0A0A0" stroke-miterlimit="10" />
    </g>
    <defs>
        <clipPath id="clip0_1734_5660">
            <rect width="12" height="12" fill="white" />
        </clipPath>
    </defs>
</svg>