<svg width="18" height="18" viewBox="0 0 18 18" fill="none" xmlns="http://www.w3.org/2000/svg">
<path d="M12 6.74999C12.4868 7.3991 12.75 8.1886 12.75 8.99999C12.75 9.81138 12.4868 10.6009 12 11.25M14.523 13.773C15.1498 13.1462 15.647 12.4021 15.9862 11.5831C16.3255 10.7642 16.5001 9.88642 16.5001 8.99999C16.5001 8.11356 16.3255 7.23581 15.9862 6.41686C15.647 5.59791 15.1498 4.85379 14.523 4.22699M8.25 3.52649C8.24985 3.42202 8.21876 3.31994 8.16065 3.23313C8.10254 3.14632 8.02001 3.07867 7.92349 3.03871C7.82697 2.99875 7.72077 2.98828 7.61831 3.00862C7.51584 3.02896 7.42169 3.0792 7.34775 3.15299L4.80975 5.69024C4.7118 5.78877 4.59528 5.86689 4.46692 5.92006C4.33856 5.97323 4.20093 6.0004 4.062 5.99999H2.25C2.05109 5.99999 1.86032 6.07901 1.71967 6.21966C1.57902 6.36031 1.5 6.55108 1.5 6.74999V11.25C1.5 11.4489 1.57902 11.6397 1.71967 11.7803C1.86032 11.921 2.05109 12 2.25 12H4.062C4.20093 11.9996 4.33856 12.0268 4.46692 12.0799C4.59528 12.1331 4.7118 12.2112 4.80975 12.3097L7.347 14.8477C7.42095 14.9218 7.51523 14.9723 7.61789 14.9928C7.72056 15.0132 7.82699 15.0028 7.92369 14.9627C8.0204 14.9226 8.10303 14.8547 8.16112 14.7676C8.21921 14.6805 8.25015 14.5782 8.25 14.4735V3.52649Z" stroke="white" stroke-width="0.75" stroke-linecap="round" stroke-linejoin="round"/>
</svg>

