<svg width="24" height="24" viewBox="0 0 24 24" fill="none" xmlns="http://www.w3.org/2000/svg">
<g clip-path="url(#clip0_44_5404)">
<path d="M22.75 11.75C22.75 5.67487 17.8251 0.75 11.75 0.75C5.67487 0.75 0.75 5.67487 0.75 11.75C0.75 17.8251 5.67487 22.75 11.75 22.75C17.8251 22.75 22.75 17.8251 22.75 11.75Z" stroke="black" stroke-width="1.5" stroke-miterlimit="10"/>
<path d="M10.8899 6.20005C10.8899 5.69005 11.2899 5.30005 11.7999 5.30005C12.3099 5.30005 12.6999 5.68005 12.6999 6.20005C12.6999 6.72005 12.3199 7.11005 11.7999 7.11005C11.2799 7.11005 10.8899 6.71005 10.8899 6.20005ZM11.1799 16.76V8.98005H12.3999V16.76H11.1799Z" fill="black" stroke="black" stroke-width="0.25" stroke-miterlimit="10"/>
</g>
<defs>
<clipPath id="clip0_44_5404">
<rect width="23.5" height="23.5" fill="white"/>
</clipPath>
</defs>
</svg>
