<svg width="27" height="27" viewBox="0 0 27 27" fill="none" xmlns="http://www.w3.org/2000/svg">
<path fill-rule="evenodd" clip-rule="evenodd" d="M17.1984 2.30412C16.0269 1.91239 14.7731 1.7002 13.4698 1.7002C6.98044 1.7002 1.71979 6.96085 1.71979 13.4502C1.71979 14.7535 1.93198 16.0073 2.32371 17.1788L3.53196 15.9705C3.32809 15.1642 3.21979 14.3199 3.21979 13.4502C3.21979 7.78928 7.80887 3.2002 13.4698 3.2002C14.3395 3.2002 15.1838 3.3085 15.9901 3.51236L17.1984 2.30412ZM23.4384 11.0548L24.6544 9.8388C25.0215 10.9766 25.2198 12.1902 25.2198 13.4502C25.2198 19.9395 19.9591 25.2002 13.4698 25.2002C12.2098 25.2002 10.9962 25.0019 9.85839 24.6348L11.0744 23.4188C11.8428 23.6028 12.6449 23.7002 13.4698 23.7002C19.1307 23.7002 23.7198 19.1111 23.7198 13.4502C23.7198 12.6253 23.6224 11.8232 23.4384 11.0548Z" fill="#A0A0A0"/>
<path d="M2.49997 24.5L24.5 2.5" stroke="#A0A0A0" stroke-width="1.5" stroke-miterlimit="10"/>
</svg>
