<svg width="126" height="72" viewBox="0 0 126 72" fill="none" xmlns="http://www.w3.org/2000/svg">
    <rect x="0.5" y="0.947678" width="124.828" height="70.2155" fill="#2E2E2E"/>
    <g clip-path="url(#clip0_9593_201580)">
        <path d="M49.6928 38.0857H49.2163V37.1159H49.6928C50.53 37.1159 51.2116 36.423 51.2116 35.5702C51.2116 34.7174 50.5307 34.0245 49.6928 34.0245H49.2163V33.0555H49.6928C51.056 33.0555 52.1645 34.1836 52.1645 35.5702C52.1645 36.9568 51.056 38.0849 49.6935 38.0849L49.6928 38.0857Z" fill="white"/>
        <path d="M48.1746 36.0551H47.2217V39.0547H48.1746V36.0551Z" fill="white"/>
        <path d="M66.0257 36.0551H65.0728V39.0547H66.0257V36.0551Z" fill="white"/>
        <path d="M68.0952 33.0555H63.0029V34.0253H68.0952V33.0555Z" fill="white"/>
        <path d="M74.4671 33.0555H73.5142V36.0551H74.4671V33.0555Z" fill="white"/>
        <path d="M78.6064 38.0688H73.5142V39.0386H78.6064V38.0688Z" fill="white"/>
        <path d="M57.5836 36.0551H56.6307V35.5702C56.6307 34.7182 55.9498 34.0245 55.1119 34.0245C54.2739 34.0245 53.5931 34.7174 53.5931 35.5702V36.0551H52.6401V35.5702C52.6409 34.1836 53.7494 33.0555 55.1119 33.0555C56.4743 33.0555 57.5828 34.1836 57.5828 35.5702V36.0551H57.5836Z" fill="white"/>
        <path d="M52.6411 36.0551H53.594V36.54C53.594 37.392 54.2749 38.0857 55.1128 38.0857C55.9508 38.0857 56.6316 37.3928 56.6316 36.54V36.0551H57.5846V36.54C57.5846 37.9266 56.4761 39.0547 55.1136 39.0547C53.7511 39.0547 52.6426 37.9266 52.6426 36.54V36.0551H52.6411Z" fill="white"/>
        <path d="M73.0377 36.0551H72.0848V35.5702C72.0848 34.7182 71.4039 34.0245 70.566 34.0245C69.728 34.0245 69.0472 34.7174 69.0472 35.5702V36.0551H68.0942V35.5702C68.095 34.1836 69.2035 33.0555 70.566 33.0555C71.9285 33.0555 73.0369 34.1836 73.0369 35.5702V36.0551H73.0377Z" fill="white"/>
        <path d="M73.0377 39.0555H72.0848V38.5706C72.0848 37.7186 71.4039 37.0249 70.566 37.0249C69.728 37.0249 69.0472 37.7178 69.0472 38.5706V39.0555H68.0942V38.5706C68.0942 37.184 69.2027 36.0558 70.5652 36.0558C71.9277 36.0558 73.0362 37.184 73.0362 38.5706V39.0555H73.0377Z" fill="white"/>
        <path d="M59.013 36.0551H58.0601V39.0547H59.013V36.0551Z" fill="white"/>
        <path d="M60.0547 36.54V36.0551H61.0076V36.54C61.0076 37.392 61.6885 38.0857 62.5264 38.0857H63.0029V39.0555H62.5264C61.1639 39.0555 60.0554 37.9274 60.0554 36.5407L60.0547 36.54Z" fill="white"/>
        <path d="M63.0029 35.5702V36.0551H62.05V35.5702C62.05 34.7182 61.3691 34.0245 60.5311 34.0245H60.0547V33.0555H60.5311C61.8936 33.0555 63.0021 34.1836 63.0021 35.5702H63.0029Z" fill="white"/>
    </g>
    <defs>
        <clipPath id="clip0_9593_201580">
            <rect width="31.3846" height="6" fill="white" transform="translate(47.2217 33.0555)"/>
        </clipPath>
    </defs>
</svg>