<svg width="12" height="10" viewBox="0 0 12 10" fill="none" xmlns="http://www.w3.org/2000/svg">
<g clip-path="url(#clip0_48_1219)">
<path d="M3.64648 1.3457H11.6346" stroke="white" stroke-miterlimit="10"/>
<path d="M3.64648 5.0127H11.6346" stroke="white" stroke-miterlimit="10"/>
<path d="M11.6346 8.67969H3.64648" stroke="white" stroke-miterlimit="10"/>
<path d="M0.896554 2.10561C1.33049 2.10561 1.68227 1.75383 1.68227 1.31989C1.68227 0.885956 1.33049 0.53418 0.896554 0.53418C0.462616 0.53418 0.11084 0.885956 0.11084 1.31989C0.11084 1.75383 0.462616 2.10561 0.896554 2.10561Z" fill="white"/>
<path d="M0.896554 5.79799C1.33049 5.79799 1.68227 5.44621 1.68227 5.01228C1.68227 4.57834 1.33049 4.22656 0.896554 4.22656C0.462616 4.22656 0.11084 4.57834 0.11084 5.01228C0.11084 5.44621 0.462616 5.79799 0.896554 5.79799Z" fill="white"/>
<path d="M0.896554 9.46498C1.33049 9.46498 1.68227 9.11321 1.68227 8.67927C1.68227 8.24533 1.33049 7.89355 0.896554 7.89355C0.462616 7.89355 0.11084 8.24533 0.11084 8.67927C0.11084 9.11321 0.462616 9.46498 0.896554 9.46498Z" fill="white"/>
</g>
<defs>
<clipPath id="clip0_48_1219">
<rect width="11.5238" height="8.93095" fill="white" transform="translate(0.11084 0.53418)"/>
</clipPath>
</defs>
</svg>
