<svg width="23" height="23" viewBox="0 0 23 23" fill="none" xmlns="http://www.w3.org/2000/svg">
<g clip-path="url(#clip0_119_28)">
<path d="M21.8281 11.0149C21.8281 5.32753 17.2176 0.71701 11.5303 0.71701C5.84291 0.71701 1.2324 5.32753 1.2324 11.0149C1.2324 16.7022 5.84291 21.3128 11.5303 21.3128C17.2176 21.3128 21.8281 16.7022 21.8281 11.0149Z" stroke="white" stroke-width="1.5" stroke-miterlimit="10"/>
<path d="M11.5303 12.4191C12.3058 12.4191 12.9345 11.7904 12.9345 11.0149C12.9345 10.2393 12.3058 9.61063 11.5303 9.61063C10.7547 9.61063 10.126 10.2393 10.126 11.0149C10.126 11.7904 10.7547 12.4191 11.5303 12.4191Z" fill="white"/>
<path d="M6.84942 12.4566C7.62497 12.4566 8.25368 11.8279 8.25368 11.0523C8.25368 10.2768 7.62497 9.64807 6.84942 9.64807C6.07387 9.64807 5.44517 10.2768 5.44517 11.0523C5.44517 11.8279 6.07387 12.4566 6.84942 12.4566Z" fill="white"/>
<path d="M16.2111 12.4566C16.9867 12.4566 17.6154 11.8279 17.6154 11.0523C17.6154 10.2768 16.9867 9.64807 16.2111 9.64807C15.4356 9.64807 14.8069 10.2768 14.8069 11.0523C14.8069 11.8279 15.4356 12.4566 16.2111 12.4566Z" fill="white"/>
</g>
<defs>
<clipPath id="clip0_119_28">
<rect width="22" height="22" fill="white" transform="translate(0.530273 0.0148926)"/>
</clipPath>
</defs>
</svg>
