<svg width="14" height="14" viewBox="0 0 14 14" fill="none" xmlns="http://www.w3.org/2000/svg">
<g clip-path="url(#clip0_9_1104)">
<path d="M7.7847 8.29262L5.11808 9.8322C4.77769 9.90052 4.08994 9.77844 4.06199 8.74356C4.03403 7.70867 4.04903 6.42864 4.06003 5.91799C3.96892 5.4528 4.05917 4.72663 2.69736 4.55722C1.61579 4.42267 1.77604 3.06874 2.42371 2.6851L4.00606 1.74781" stroke="#CBCBCB" stroke-width="0.886364"/>
<path d="M7.75074 8.31228L10.4174 6.7727C10.6467 6.51208 10.8849 5.85543 10.0026 5.31378C9.12036 4.77213 8.00432 4.1451 7.55659 3.8993C7.19927 3.5878 6.52527 3.30288 7.05946 2.03881C7.48372 1.03487 6.23105 0.496683 5.57498 0.865757L3.97209 1.76747" stroke="#CBCBCB" stroke-width="0.886364"/>
<path d="M7.91956 8.24905L10.3026 12.198" stroke="#CBCBCB" stroke-width="0.886364"/>
</g>
<defs>
<clipPath id="clip0_9_1104">
<rect width="13" height="13" fill="white" transform="translate(0.5 0.25)"/>
</clipPath>
</defs>
</svg>
