<svg width="22" height="19" viewBox="0 0 22 19" fill="none" xmlns="http://www.w3.org/2000/svg">
<g clip-path="url(#clip0_429_2861)">
<path d="M21.2979 1.41211H0.702148V18.0275H21.2979V1.41211Z" stroke="black" stroke-miterlimit="10"/>
<path d="M12.8632 9.7207H9.13721" stroke="black" stroke-miterlimit="10" stroke-linecap="round"/>
<path d="M12.8631 6.95117H9.13712C7.58603 6.95117 6.32861 8.191 6.32861 9.7204V9.72963C6.32861 11.259 7.58603 12.4989 9.13712 12.4989H12.8631C14.4142 12.4989 15.6716 11.259 15.6716 9.72963V9.7204C15.6716 8.191 14.4142 6.95117 12.8631 6.95117Z" stroke="black" stroke-miterlimit="10"/>
<path d="M16.6638 4.16406H5.33619C4.33315 4.16406 3.52002 4.96582 3.52002 5.95483V13.4779C3.52002 14.4669 4.33315 15.2687 5.33619 15.2687H16.6638C17.6669 15.2687 18.48 14.4669 18.48 13.4779V5.95483C18.48 4.96582 17.6669 4.16406 16.6638 4.16406Z" stroke="black" stroke-miterlimit="10"/>
</g>
<defs>
<clipPath id="clip0_429_2861">
<rect width="22" height="18" fill="white" transform="translate(0 0.720703)"/>
</clipPath>
</defs>
</svg>
