<svg fill="none" height="126" viewBox="0 0 72 126" width="72" xmlns="http://www.w3.org/2000/svg">
    <rect fill="#2E2E2E" height="70.2155" transform="rotate(90 71.021 0.641617)" width="124.828"
        x="71.021" y="0.641617" />
    <g clip-path="url(#clip0_9593_201581)">
        <path
            d="M22.6918 65.0857H22.2153V64.1159H22.6918C23.529 64.1159 24.2106 63.4229 24.2106 62.5702C24.2106 61.7174 23.5297 61.0245 22.6918 61.0245H22.2153V60.0555H22.6918C24.055 60.0555 25.1635 61.1836 25.1635 62.5702C25.1635 63.9568 24.055 65.0849 22.6925 65.0849L22.6918 65.0857Z"
            fill="white" />
        <path d="M21.1736 63.0551H20.2207V66.0547H21.1736V63.0551Z" fill="white" />
        <path d="M39.0242 63.0551H38.0713V66.0547H39.0242V63.0551Z" fill="white" />
        <path d="M41.0937 60.0555H36.0015V61.0252H41.0937V60.0555Z" fill="white" />
        <path d="M47.4661 60.0555H46.5132V63.0551H47.4661V60.0555Z" fill="white" />
        <path d="M51.6054 65.0688H46.5132V66.0386H51.6054V65.0688Z" fill="white" />
        <path
            d="M30.5826 63.0551H29.6297V62.5702C29.6297 61.7182 28.9488 61.0245 28.1109 61.0245C27.2729 61.0245 26.5921 61.7174 26.5921 62.5702V63.0551H25.6392V62.5702C25.6399 61.1836 26.7484 60.0555 28.1109 60.0555C29.4734 60.0555 30.5818 61.1836 30.5818 62.5702V63.0551H30.5826Z"
            fill="white" />
        <path
            d="M25.6401 63.0551H26.5931V63.54C26.5931 64.392 27.2739 65.0857 28.1119 65.0857C28.9498 65.0857 29.6307 64.3927 29.6307 63.54V63.0551H30.5836V63.54C30.5836 64.9266 29.4751 66.0547 28.1126 66.0547C26.7501 66.0547 25.6416 64.9266 25.6416 63.54V63.0551H25.6401Z"
            fill="white" />
        <path
            d="M46.0367 63.0551H45.0838V62.5702C45.0838 61.7182 44.4029 61.0245 43.565 61.0245C42.727 61.0245 42.0462 61.7174 42.0462 62.5702V63.0551H41.0933V62.5702C41.094 61.1836 42.2025 60.0555 43.565 60.0555C44.9275 60.0555 46.036 61.1836 46.036 62.5702V63.0551H46.0367Z"
            fill="white" />
        <path
            d="M46.0367 66.0555H45.0838V65.5706C45.0838 64.7185 44.4029 64.0249 43.565 64.0249C42.727 64.0249 42.0462 64.7178 42.0462 65.5706V66.0555H41.0933V65.5706C41.0933 64.1839 42.2017 63.0558 43.5642 63.0558C44.9267 63.0558 46.0352 64.1839 46.0352 65.5706V66.0555H46.0367Z"
            fill="white" />
        <path d="M32.012 63.0551H31.0591V66.0547H32.012V63.0551Z" fill="white" />
        <path
            d="M33.0537 63.54V63.0551H34.0066V63.54C34.0066 64.392 34.6875 65.0857 35.5254 65.0857H36.0019V66.0555H35.5254C34.1629 66.0555 33.0545 64.9273 33.0545 63.5407L33.0537 63.54Z"
            fill="white" />
        <path
            d="M36.0019 62.5702V63.0551H35.049V62.5702C35.049 61.7182 34.3681 61.0245 33.5302 61.0245H33.0537V60.0555H33.5302C34.8927 60.0555 36.0011 61.1836 36.0011 62.5702H36.0019Z"
            fill="white" />
    </g>
    <defs>
        <clipPath id="clip0_9593_201581">
            <rect fill="white" height="6" transform="translate(20.2207 60.0555)" width="31.3846" />
        </clipPath>
    </defs>
</svg>
