<svg width="24" height="24" viewBox="0 0 24 24" fill="none" xmlns="http://www.w3.org/2000/svg">
<path d="M14.0162 16.8779C12.3406 17.8579 10.3654 18.1939 8.46009 17.8232C6.55473 17.4525 4.84965 16.4004 3.6637 14.8638C2.47774 13.3271 1.89214 11.4111 2.01638 9.47396C2.14063 7.53685 2.96623 5.71134 4.33878 4.33878C5.71134 2.96623 7.53685 2.14063 9.47396 2.01638C11.4111 1.89214 13.3271 2.47774 14.8638 3.6637C16.4004 4.84965 17.4525 6.55473 17.8232 8.46009C18.1939 10.3654 17.8579 12.3406 16.8779 14.0162L22 19.1382L19.1382 22L14.0162 16.8779ZM9.98379 14.452C11.1688 14.452 12.3054 13.9813 13.1433 13.1433C13.9813 12.3054 14.452 11.1688 14.452 9.98379C14.452 8.79873 13.9813 7.66222 13.1433 6.82426C12.3054 5.9863 11.1688 5.51554 9.98379 5.51554C8.79873 5.51554 7.66222 5.9863 6.82426 6.82426C5.9863 7.66222 5.51554 8.79873 5.51554 9.98379C5.51554 11.1688 5.9863 12.3054 6.82426 13.1433C7.66222 13.9813 8.79873 14.452 9.98379 14.452Z" fill="black"/>
</svg>
