<svg width="16" height="14" viewBox="0 0 16 14" fill="none" xmlns="http://www.w3.org/2000/svg">
  <g clip-path="url(#clip0_3106_3363)">
    <path d="M12.8281 13.6391L15.2114 11.2558L12.8281 8.87257" stroke="white" stroke-miterlimit="10" />
    <path
      d="M10.0498 9.77121L10.1309 9.88351C10.549 10.428 11.2036 10.7555 11.8955 10.7556H15.2119V11.7556H11.8955C10.8229 11.7554 9.81699 11.2158 9.2207 10.3298L9.21973 10.3279L8.79785 9.69699L9.39941 8.79855L10.0498 9.77121ZM3.2959 2.24387C4.36652 2.24392 5.37492 2.77516 5.97266 3.6716H5.97168L6.39258 4.30148L5.79102 5.2009L5.14062 4.22726V4.22629C4.73061 3.61142 4.03625 3.24392 3.2959 3.24387H0V2.24387H3.2959Z"
      fill="white" />
    <path d="M12.8281 0.360893L15.2114 2.74416L12.8281 5.12743" stroke="white"
      stroke-miterlimit="10" />
    <path
      d="M15.2121 2.74416H11.8959C10.9903 2.74416 10.1391 3.20039 9.63521 3.94942L5.54961 10.0438C5.04572 10.7996 4.19455 11.249 3.28891 11.249H0"
      stroke="white" stroke-miterlimit="10" />
  </g>
  <defs>
    <clipPath id="clip0_3106_3363">
      <rect width="15.9339" height="14" fill="white" />
    </clipPath>
  </defs>
</svg>